<svg id="visual" viewBox="0 0 900 600" width="900" height="600" xmlns="http://www.w3.org/2000/svg" xmlns:xlink="http://www.w3.org/1999/xlink" version="1.1"><path d="M0 404L21.5 397C43 390 86 376 128.8 371.5C171.7 367 214.3 372 257.2 381.7C300 391.3 343 405.7 385.8 415.2C428.7 424.7 471.3 429.3 514.2 431.7C557 434 600 434 642.8 432.8C685.7 431.7 728.3 429.3 771.2 423.7C814 418 857 409 878.5 404.5L900 400L900 601L878.5 601C857 601 814 601 771.2 601C728.3 601 685.7 601 642.8 601C600 601 557 601 514.2 601C471.3 601 428.7 601 385.8 601C343 601 300 601 257.2 601C214.3 601 171.7 601 128.8 601C86 601 43 601 21.5 601L0 601Z" fill="#abdcfc"></path><path d="M0 393L21.5 398.3C43 403.7 86 414.3 128.8 426.7C171.7 439 214.3 453 257.2 460.8C300 468.7 343 470.3 385.8 472C428.7 473.7 471.3 475.3 514.2 462.8C557 450.3 600 423.7 642.8 409.7C685.7 395.7 728.3 394.3 771.2 399.8C814 405.3 857 417.7 878.5 423.8L900 430L900 601L878.5 601C857 601 814 601 771.2 601C728.3 601 685.7 601 642.8 601C600 601 557 601 514.2 601C471.3 601 428.7 601 385.8 601C343 601 300 601 257.2 601C214.3 601 171.7 601 128.8 601C86 601 43 601 21.5 601L0 601Z" fill="#77c1fc"></path><path d="M0 469L21.5 472.3C43 475.7 86 482.3 128.8 481C171.7 479.7 214.3 470.3 257.2 463.2C300 456 343 451 385.8 458.3C428.7 465.7 471.3 485.3 514.2 492.5C557 499.7 600 494.3 642.8 492.5C685.7 490.7 728.3 492.3 771.2 490.7C814 489 857 484 878.5 481.5L900 479L900 601L878.5 601C857 601 814 601 771.2 601C728.3 601 685.7 601 642.8 601C600 601 557 601 514.2 601C471.3 601 428.7 601 385.8 601C343 601 300 601 257.2 601C214.3 601 171.7 601 128.8 601C86 601 43 601 21.5 601L0 601Z" fill="#46a4fb"></path><path d="M0 534L21.5 531.5C43 529 86 524 128.8 524.5C171.7 525 214.3 531 257.2 524.8C300 518.7 343 500.3 385.8 499.3C428.7 498.3 471.3 514.7 514.2 517.3C557 520 600 509 642.8 508.3C685.7 507.7 728.3 517.3 771.2 517.3C814 517.3 857 507.7 878.5 502.8L900 498L900 601L878.5 601C857 601 814 601 771.2 601C728.3 601 685.7 601 642.8 601C600 601 557 601 514.2 601C471.3 601 428.7 601 385.8 601C343 601 300 601 257.2 601C214.3 601 171.7 601 128.8 601C86 601 43 601 21.5 601L0 601Z" fill="#1d85f6"></path><path d="M0 529L21.5 533.3C43 537.7 86 546.3 128.8 548.7C171.7 551 214.3 547 257.2 544.2C300 541.3 343 539.7 385.8 538.2C428.7 536.7 471.3 535.3 514.2 534C557 532.7 600 531.3 642.8 533.3C685.7 535.3 728.3 540.7 771.2 544.8C814 549 857 552 878.5 553.5L900 555L900 601L878.5 601C857 601 814 601 771.2 601C728.3 601 685.7 601 642.8 601C600 601 557 601 514.2 601C471.3 601 428.7 601 385.8 601C343 601 300 601 257.2 601C214.3 601 171.7 601 128.8 601C86 601 43 601 21.5 601L0 601Z" fill="#2563eb"></path></svg>